<?xml version="1.0" encoding="UTF-8" standalone="no"?>
<svg
   xmlns:osb="http://www.openswatchbook.org/uri/2009/osb"
   xmlns:dc="http://purl.org/dc/elements/1.1/"
   xmlns:cc="http://creativecommons.org/ns#"
   xmlns:rdf="http://www.w3.org/1999/02/22-rdf-syntax-ns#"
   xmlns:svg="http://www.w3.org/2000/svg"
   xmlns="http://www.w3.org/2000/svg"
   xmlns:sodipodi="http://sodipodi.sourceforge.net/DTD/sodipodi-0.dtd"
   xmlns:inkscape="http://www.inkscape.org/namespaces/inkscape"
   width="210mm"
   height="297mm"
   viewBox="0 0 210 297"
   version="1.1"
   id="svg8"
   inkscape:version="1.0.1 (3bc2e813f5, 2020-09-07)"
   sodipodi:docname="custom40_art.svg">
  <defs
     id="defs2">
    <linearGradient
       id="linearGradient926"
       osb:paint="solid">
      <stop
         style="stop-color:#000000;stop-opacity:1;"
         offset="0"
         id="stop924" />
    </linearGradient>
  </defs>
  <sodipodi:namedview
     id="base"
     pagecolor="#ffffff"
     bordercolor="#666666"
     borderopacity="1.0"
     inkscape:pageopacity="0.0"
     inkscape:pageshadow="2"
     inkscape:zoom="0.98994949"
     inkscape:cx="471.44646"
     inkscape:cy="223.50873"
     inkscape:document-units="mm"
     inkscape:current-layer="layer1"
     inkscape:document-rotation="0"
     showgrid="false"
     inkscape:window-width="1920"
     inkscape:window-height="1017"
     inkscape:window-x="-8"
     inkscape:window-y="-8"
     inkscape:window-maximized="1"
     inkscape:object-nodes="true"
     inkscape:snap-smooth-nodes="true"
     inkscape:snap-intersection-paths="true" />
  <metadata
     id="metadata5">
    <rdf:RDF>
      <cc:Work
         rdf:about="">
        <dc:format>image/svg+xml</dc:format>
        <dc:type
           rdf:resource="http://purl.org/dc/dcmitype/StillImage" />
        <dc:title />
      </cc:Work>
    </rdf:RDF>
  </metadata>
  <g
     inkscape:label="Layer 1"
     inkscape:groupmode="layer"
     id="layer1">
    <path
       d="m 102.31982,103.64336 -0.94045,-1.96511 h -0.0422 v 6.59716 h -2.00721 v -9.797481 h 2.33006 l 2.68096,4.632041 0.94046,1.96511 h 0.0422 v -6.597151 h 2.00721 v 9.797481 h -2.33006 z"
       style="font-style:normal;font-variant:normal;font-weight:bold;font-stretch:normal;font-size:13.8836px;line-height:1.25;font-family:'IBM Plex Sans';-inkscape-font-specification:'IBM Plex Sans Bold';fill:#000000;fill-opacity:1;stroke:none;stroke-width:0.350914"
       id="path898-9" />
    <rect
       style="fill:#ff0000;fill-opacity:0.262097;stroke:none;stroke-width:3.26173;stroke-linecap:round;stroke-linejoin:round;stroke-miterlimit:4;stroke-dasharray:none;stroke-opacity:1"
       id="rect871-8"
       width="18.508009"
       height="25.531755"
       x="104.08118"
       y="32.497166" />
    <rect
       style="fill:#ff0000;fill-opacity:0.262097;stroke:none;stroke-width:3.26172;stroke-linecap:round;stroke-linejoin:round;stroke-miterlimit:4;stroke-dasharray:none;stroke-opacity:1"
       id="rect871"
       width="18.508009"
       height="25.531755"
       x="45.946789"
       y="30.26144" />
    <path
       d="m 52.722319,39.972576 -0.69564,-2.309525 h -3.241682 l -0.69564,2.309525 h -2.142571 l 3.199943,-9.711134 h 2.615607 l 3.158205,9.711134 z m -2.295612,-7.791168 h -0.06956 l -1.07129,3.686892 h 2.226048 z"
       style="font-style:normal;font-variant:normal;font-weight:bold;font-stretch:normal;font-size:13.9128px;line-height:1.25;font-family:'IBM Plex Sans';-inkscape-font-specification:'IBM Plex Sans Bold';fill:#000000;fill-opacity:1;stroke:none;stroke-width:0.347821"
       id="path855" />
    <path
       d="m 64.409052,39.972576 h -2.448653 l -2.100833,-3.575589 h -0.04174 l -2.045182,3.575589 h -2.281699 l 3.116467,-5.022521 -2.963426,-4.688613 h 2.462565 l 1.892141,3.283421 h 0.04174 l 1.919967,-3.283421 h 2.281699 l -2.991252,4.730352 z"
       style="font-style:normal;font-variant:normal;font-weight:bold;font-stretch:normal;font-size:13.9128px;line-height:1.25;font-family:'IBM Plex Sans';-inkscape-font-specification:'IBM Plex Sans Bold';fill:#000000;fill-opacity:1;stroke:none;stroke-width:0.347821"
       id="path857" />
    <path
       d="m 45.946786,52.459421 v -1.9824 h 1.586412 v -7.470859 h -1.586412 v -1.982398 h 5.852098 v 1.982398 h -1.586412 v 7.470859 h 1.586412 v 1.9824 z"
       style="font-style:normal;font-variant:normal;font-weight:bold;font-stretch:normal;font-size:13.9128px;line-height:1.25;font-family:'IBM Plex Sans';-inkscape-font-specification:'IBM Plex Sans Bold';fill:#000000;fill-opacity:1;stroke:none;stroke-width:0.424845"
       id="path859" />
    <path
       d="m 58.972981,52.656023 q -1.216249,0 -2.220978,-0.376821 -1.004727,-0.37682 -1.7098,-1.114074 -0.705071,-0.75364 -1.092862,-1.851332 -0.387789,-1.114076 -0.387789,-2.572204 0,-1.458128 0.387789,-2.55582 0.387791,-1.114075 1.092862,-1.851332 0.705073,-0.753639 1.7098,-1.130458 1.004729,-0.37682 2.220978,-0.37682 1.216249,0 2.220978,0.37682 1.004727,0.376819 1.709799,1.130458 0.705073,0.737257 1.092863,1.851332 0.38779,1.097692 0.38779,2.55582 0,1.458128 -0.38779,2.572204 -0.38779,1.097692 -1.092863,1.851332 -0.705072,0.737254 -1.709799,1.114074 -1.004729,0.376821 -2.220978,0.376821 z m 0,-2.211768 q 1.216249,0 1.886069,-0.737256 0.687445,-0.737255 0.687445,-2.113467 v -1.703881 q 0,-1.37621 -0.687445,-2.113467 -0.66982,-0.737254 -1.886069,-0.737254 -1.216249,0 -1.903694,0.737254 -0.66982,0.737257 -0.66982,2.113467 v 1.703881 q 0,1.376212 0.66982,2.113467 0.687445,0.737256 1.903694,0.737256 z"
       style="font-style:normal;font-variant:normal;font-weight:bold;font-stretch:normal;font-size:13.9128px;line-height:1.25;font-family:'IBM Plex Sans';-inkscape-font-specification:'IBM Plex Sans Bold';fill:#000000;fill-opacity:1;stroke:none;stroke-width:0.424845"
       id="path861" />
    <path
       d="m 53.209274,57.638653 h -0.04174 l -0.709553,1.419105 -1.892141,3.436462 -1.850402,-3.422549 -0.737379,-1.530408 h -0.04174 v 6.469452 h -1.98953 v -9.711134 h 2.23996 l 2.379089,4.549485 h 0.02783 l 2.351263,-4.549485 h 2.253873 v 9.711134 h -1.98953 z"
       style="font-style:normal;font-variant:normal;font-weight:bold;font-stretch:normal;font-size:13.9128px;line-height:1.25;font-family:'IBM Plex Sans';-inkscape-font-specification:'IBM Plex Sans Bold';fill:#000000;fill-opacity:1;stroke:none;stroke-width:0.347821"
       id="path863" />
    <text
       xml:space="preserve"
       style="font-style:normal;font-weight:normal;font-size:13.9128px;line-height:1.25;font-family:sans-serif;fill:#000000;fill-opacity:1;stroke:none;stroke-width:0.347821"
       x="45.599834"
       y="28.041197"
       id="text835-0"><tspan
         sodipodi:role="line"
         id="tspan833-1"
         x="45.599834"
         y="28.041197"
         style="font-style:normal;font-variant:normal;font-weight:bold;font-stretch:normal;font-family:'IBM Plex Sans';-inkscape-font-specification:'IBM Plex Sans Bold';stroke-width:0.347821">AXIOM</tspan></text>
    <path
       d="m 82.708625,41.865665 -0.673409,-2.235721 h -3.138091 l -0.67341,2.235721 h -2.074102 l 3.097685,-9.400803 h 2.532023 l 3.057281,9.400803 z m -2.222252,-7.542192 h -0.06734 l -1.037051,3.569073 h 2.154912 z"
       style="font-style:normal;font-variant:normal;font-weight:bold;font-stretch:normal;font-size:13.8836px;line-height:1.25;font-family:'IBM Plex Sans';-inkscape-font-specification:'IBM Plex Sans Bold';fill:#000000;fill-opacity:1;stroke:none;stroke-width:0.336705"
       id="path892"
       inkscape:export-xdpi="547.50006"
       inkscape:export-ydpi="547.50006" />
    <path
       d="m 94.573131,41.865665 h -2.370129 l -2.033463,-3.460928 h -0.0404 l -1.979596,3.460928 h -2.208529 l 3.016527,-4.861458 -2.868395,-4.538259 h 2.383596 l 1.831463,3.178127 h 0.0404 l 1.858396,-3.178127 h 2.208529 l -2.895328,4.578659 z"
       style="font-style:normal;font-variant:normal;font-weight:bold;font-stretch:normal;font-size:13.8836px;line-height:1.25;font-family:'IBM Plex Sans';-inkscape-font-specification:'IBM Plex Sans Bold';fill:#000000;fill-opacity:1;stroke:none;stroke-width:0.336666"
       id="path894"
       inkscape:export-xdpi="547.50006"
       inkscape:export-ydpi="547.50006" />
    <path
       d="m 80.539614,53.234347 q -0.968518,0 -1.768598,-0.32284 -0.800081,-0.322839 -1.361541,-0.954482 -0.56146,-0.645678 -0.870263,-1.586125 -0.308803,-0.954481 -0.308803,-2.20373 0,-1.249248 0.308803,-2.189694 0.308803,-0.954482 0.870263,-1.586124 0.56146,-0.64568 1.361541,-0.968519 0.80008,-0.32284 1.768598,-0.32284 0.968515,0 1.768601,0.32284 0.800075,0.322839 1.361541,0.968519 0.561456,0.631642 0.87026,1.586124 0.308804,0.940446 0.308804,2.189694 0,1.249249 -0.308804,2.20373 -0.308804,0.940447 -0.87026,1.586125 -0.561466,0.631643 -1.361541,0.954482 -0.800086,0.32284 -1.768601,0.32284 z m 0,-1.894928 q 0.968515,0 1.501906,-0.631642 0.547423,-0.631643 0.547423,-1.810709 v -1.459796 q 0,-1.179066 -0.547423,-1.810709 -0.533391,-0.631642 -1.501906,-0.631642 -0.968518,0 -1.515942,0.631642 -0.533386,0.631643 -0.533386,1.810709 v 1.459796 q 0,1.179066 0.533386,1.810709 0.547424,0.631642 1.515942,0.631642 z"
       style="font-style:normal;font-variant:normal;font-weight:bold;font-stretch:normal;font-size:13.8836px;line-height:1.25;font-family:'IBM Plex Sans';-inkscape-font-specification:'IBM Plex Sans Bold';fill:#000000;fill-opacity:1;stroke:none;stroke-width:0.350913"
       id="path896"
       inkscape:export-xdpi="547.50006"
       inkscape:export-ydpi="547.50006" />
    <path
       d="m 89.621216,48.433863 -0.940445,-1.96511 h -0.04216 v 6.597156 h -2.007215 v -9.797477 h 2.330062 l 2.680964,4.632045 0.940454,1.96511 h 0.04216 v -6.597155 h 2.007215 v 9.797477 H 92.30219 Z"
       style="font-style:normal;font-variant:normal;font-weight:bold;font-stretch:normal;font-size:13.8836px;line-height:1.25;font-family:'IBM Plex Sans';-inkscape-font-specification:'IBM Plex Sans Bold';fill:#000000;fill-opacity:1;stroke:none;stroke-width:0.350913"
       id="path898"
       inkscape:export-xdpi="547.50006"
       inkscape:export-ydpi="547.50006" />
    <path
       id="rect905"
       style="fill:#000000;fill-opacity:1;stroke:none;stroke-width:7.17524;stroke-linecap:round;stroke-linejoin:round;stroke-miterlimit:4;stroke-dasharray:none;stroke-opacity:1"
       d="M 288.02148 205.75586 L 288.02148 218.96484 L 344.76367 218.96484 L 357.97266 205.75586 L 288.02148 205.75586 z "
       transform="scale(0.26458333)"
       inkscape:export-xdpi="547.50006"
       inkscape:export-ydpi="547.50006" />
    <path
       d="m 73.817198,73.867647 -0.673409,-2.235721 h -3.138091 l -0.67341,2.235721 h -2.074102 l 3.097685,-9.400803 h 2.532023 l 3.057281,9.400803 z m -2.222252,-7.542192 h -0.06734 l -1.037051,3.569073 h 2.154912 z"
       style="font-style:normal;font-variant:normal;font-weight:bold;font-stretch:normal;font-size:13.8836px;line-height:1.25;font-family:'IBM Plex Sans';-inkscape-font-specification:'IBM Plex Sans Bold';fill:#000000;fill-opacity:1;stroke:none;stroke-width:0.336706"
       id="path892-0" />
    <path
       d="m 85.681704,73.867647 h -2.370129 l -2.033463,-3.460928 h -0.0404 l -1.979596,3.460928 h -2.208529 l 3.016527,-4.861458 -2.868395,-4.538259 h 2.383596 l 1.831463,3.178127 h 0.0404 l 1.858396,-3.178127 h 2.208529 l -2.895328,4.578659 z"
       style="font-style:normal;font-variant:normal;font-weight:bold;font-stretch:normal;font-size:13.8836px;line-height:1.25;font-family:'IBM Plex Sans';-inkscape-font-specification:'IBM Plex Sans Bold';fill:#000000;fill-opacity:1;stroke:none;stroke-width:0.336666"
       id="path894-8" />
    <path
       d="m 71.648187,85.236329 q -0.968518,0 -1.768598,-0.32284 -0.800081,-0.322839 -1.361541,-0.954482 -0.56146,-0.645678 -0.870263,-1.586125 -0.308803,-0.954481 -0.308803,-2.20373 0,-1.249248 0.308803,-2.189694 0.308803,-0.954482 0.870263,-1.586124 0.56146,-0.64568 1.361541,-0.968519 0.80008,-0.32284 1.768598,-0.32284 0.968515,0 1.768601,0.32284 0.800075,0.322839 1.361541,0.968519 0.561456,0.631642 0.87026,1.586124 0.308804,0.940446 0.308804,2.189694 0,1.249249 -0.308804,2.20373 -0.308804,0.940447 -0.87026,1.586125 -0.561466,0.631643 -1.361541,0.954482 -0.800086,0.32284 -1.768601,0.32284 z m 0,-1.894928 q 0.968515,0 1.501906,-0.631642 0.547423,-0.631643 0.547423,-1.810709 v -1.459796 q 0,-1.179066 -0.547423,-1.810709 -0.533391,-0.631642 -1.501906,-0.631642 -0.968518,0 -1.515942,0.631642 -0.533386,0.631643 -0.533386,1.810709 v 1.459796 q 0,1.179066 0.533386,1.810709 0.547424,0.631642 1.515942,0.631642 z"
       style="font-style:normal;font-variant:normal;font-weight:bold;font-stretch:normal;font-size:13.8836px;line-height:1.25;font-family:'IBM Plex Sans';-inkscape-font-specification:'IBM Plex Sans Bold';fill:#000000;fill-opacity:1;stroke:none;stroke-width:0.350914"
       id="path896-0" />
    <path
       id="path898-3"
       style="font-style:normal;font-variant:normal;font-weight:bold;font-stretch:normal;font-size:13.8836px;line-height:1.25;font-family:'IBM Plex Sans';-inkscape-font-specification:'IBM Plex Sans Bold';fill:#000000;fill-opacity:1;stroke:none;stroke-width:1.32629"
       d="M 293.82031 284.48633 L 293.82031 321.51562 L 301.40625 321.51562 L 301.40625 296.58203 L 301.56641 296.58203 L 305.12109 304.00977 L 315.25391 321.51562 L 324.06055 321.51562 L 324.06055 288.28125 A 3.7931622 3.7931622 0 0 0 324.06055 288.2793 A 3.7931622 3.7931622 0 0 0 320.26758 284.48633 A 3.7931622 3.7931622 0 0 0 316.47266 288.2793 A 3.7931622 3.7931622 0 0 0 316.47266 288.28125 L 316.47266 309.41992 L 316.31445 309.41992 L 312.75977 301.99414 L 302.62695 284.48633 L 293.82031 284.48633 z "
       transform="scale(0.26458333)" />
    <path
       id="rect905-8"
       style="fill:#000000;fill-opacity:1;stroke:none;stroke-width:7.17524;stroke-linecap:round;stroke-linejoin:round;stroke-miterlimit:4;stroke-dasharray:none;stroke-opacity:1"
       d="M 254.41602 326.70898 L 254.41602 339.91797 L 311.1582 339.91797 L 317.75781 339.91797 A 6.604509 6.604509 0 0 0 317.76172 339.91797 A 6.604509 6.604509 0 0 0 324.36719 333.3125 A 6.604509 6.604509 0 0 0 317.76172 326.70898 A 6.604509 6.604509 0 0 0 317.75781 326.70898 L 311.1582 326.70898 L 254.41602 326.70898 z "
       transform="scale(0.26458333)" />
    <path
       id="path898-3-2"
       style="font-style:normal;font-variant:normal;font-weight:bold;font-stretch:normal;font-size:13.8836px;line-height:1.25;font-family:'IBM Plex Sans';-inkscape-font-specification:'IBM Plex Sans Bold';fill:#000000;fill-opacity:1;stroke:none;stroke-width:0.350914"
       d="m 39.372237,83.453275 v 9.797333 h 2.007113 v -6.597013 h 0.04238 l 0.940509,1.965257 2.680975,4.631756 h 2.33009 v -8.793261 a 1.0036075,1.0036075 0 0 0 0,-5.29e-4 1.0036075,1.0036075 0 0 0 -1.003556,-1.003556 1.0036075,1.0036075 0 0 0 -1.004073,1.003556 1.0036075,1.0036075 0 0 0 0,5.29e-4 v 5.59294 h -0.04186 l -0.940513,-1.964738 -2.680975,-4.632274 z" />
    <path
       d="M 95.407293,97.075241 94.733884,94.83952 h -3.138091 l -0.67341,2.235721 h -2.074102 l 3.097685,-9.400803 h 2.532023 l 3.057281,9.400803 z m -2.222252,-7.542192 h -0.06734 l -1.037051,3.569073 h 2.154912 z"
       style="font-style:normal;font-variant:normal;font-weight:bold;font-stretch:normal;font-size:13.8836px;line-height:1.25;font-family:'IBM Plex Sans';-inkscape-font-specification:'IBM Plex Sans Bold';fill:#000000;fill-opacity:1;stroke:none;stroke-width:0.336706"
       id="path892-0-1" />
    <path
       d="m 107.2718,97.075241 h -2.37013 l -2.03346,-3.460928 h -0.0404 l -1.9796,3.460928 h -2.208528 l 3.016528,-4.861458 -2.868396,-4.538259 h 2.383596 l 1.83146,3.178127 h 0.0404 l 1.8584,-3.178127 h 2.20853 l -2.89533,4.578659 z"
       style="font-style:normal;font-variant:normal;font-weight:bold;font-stretch:normal;font-size:13.8836px;line-height:1.25;font-family:'IBM Plex Sans';-inkscape-font-specification:'IBM Plex Sans Bold';fill:#000000;fill-opacity:1;stroke:none;stroke-width:0.336666"
       id="path894-8-4" />
    <path
       d="m 93.238282,108.44392 q -0.968518,0 -1.768598,-0.32284 -0.800081,-0.32284 -1.361541,-0.95448 -0.56146,-0.64568 -0.870263,-1.58612 -0.308803,-0.95449 -0.308803,-2.20373 0,-1.24925 0.308803,-2.1897 0.308803,-0.95448 0.870263,-1.586122 0.56146,-0.64568 1.361541,-0.968519 0.80008,-0.32284 1.768598,-0.32284 0.968515,0 1.768601,0.32284 0.800075,0.322839 1.361541,0.968519 0.561456,0.631642 0.87026,1.586122 0.308804,0.94045 0.308804,2.1897 0,1.24925 -0.308804,2.20373 -0.308804,0.94044 -0.87026,1.58612 -0.561466,0.63164 -1.361541,0.95448 -0.800086,0.32284 -1.768601,0.32284 z m 0,-1.89493 q 0.968515,0 1.501906,-0.63164 0.547423,-0.63164 0.547423,-1.81071 v -1.45979 q 0,-1.17907 -0.547423,-1.81071 -0.533391,-0.63164 -1.501906,-0.63164 -0.968518,0 -1.515942,0.63164 -0.533386,0.63164 -0.533386,1.81071 v 1.45979 q 0,1.17907 0.533386,1.81071 0.547424,0.63164 1.515942,0.63164 z"
       style="font-style:normal;font-variant:normal;font-weight:bold;font-stretch:normal;font-size:13.8836px;line-height:1.25;font-family:'IBM Plex Sans';-inkscape-font-specification:'IBM Plex Sans Bold';fill:#000000;fill-opacity:1;stroke:none;stroke-width:0.350914"
       id="path896-0-4" />
    <path
       id="rect905-8-5"
       style="fill:#000000;fill-opacity:1;stroke:none;stroke-width:1.89845;stroke-linecap:round;stroke-linejoin:round;stroke-miterlimit:4;stroke-dasharray:none;stroke-opacity:1"
       d="m 88.904333,109.64934 v 3.49488 h 15.013037 1.74615 a 1.747443,1.747443 0 0 0 0.001,0 1.747443,1.747443 0 0 0 1.7477,-1.74769 1.747443,1.747443 0 0 0 -1.7477,-1.74719 1.747443,1.747443 0 0 0 -0.001,0 h -1.74615 z" />
    <path
       d="m 100.92495,73.718269 -0.67614,-2.244785 h -3.150809 l -0.67614,2.244785 h -2.082512 l 3.110245,-9.438914 h 2.542286 l 3.06968,9.438914 z m -2.231259,-7.572768 h -0.06761 l -1.041255,3.583542 h 2.163648 z"
       style="font-style:normal;font-variant:normal;font-weight:bold;font-stretch:normal;font-size:13.5228px;line-height:1.25;font-family:'IBM Plex Sans';-inkscape-font-specification:'IBM Plex Sans Bold';fill:#000000;fill-opacity:1;stroke:none;stroke-width:0.33807"
       id="path904" />
    <path
       d="m 112.28409,73.718269 h -2.38002 l -2.04194,-3.475359 h -0.0406 l -1.98785,3.475359 h -2.21774 l 3.02911,-4.881731 -2.88036,-4.557183 h 2.39354 l 1.8391,3.191381 h 0.0406 l 1.86614,-3.191381 h 2.21774 l -2.9074,4.597752 z"
       style="font-style:normal;font-variant:normal;font-weight:bold;font-stretch:normal;font-size:13.5228px;line-height:1.25;font-family:'IBM Plex Sans';-inkscape-font-specification:'IBM Plex Sans Bold';fill:#000000;fill-opacity:1;stroke:none;stroke-width:0.33807"
       id="path906" />
    <path
       d="m 116.92238,73.880543 q -0.93308,0 -1.70388,-0.311024 -0.77079,-0.311025 -1.31171,-0.919551 -0.54091,-0.622049 -0.83841,-1.528076 -0.2975,-0.919551 -0.2975,-2.12308 0,-1.203529 0.2975,-2.109557 0.2975,-0.91955 0.83841,-1.528076 0.54092,-0.622049 1.31171,-0.933074 0.7708,-0.311024 1.70388,-0.311024 0.93307,0 1.70387,0.311024 0.7708,0.311025 1.31171,0.933074 0.54091,0.608526 0.83842,1.528076 0.2975,0.906028 0.2975,2.109557 0,1.203529 -0.2975,2.12308 -0.29751,0.906027 -0.83842,1.528076 -0.54091,0.608526 -1.31171,0.919551 -0.7708,0.311024 -1.70387,0.311024 z m 0,-1.825578 q 0.93307,0 1.44694,-0.608526 0.52739,-0.608526 0.52739,-1.744441 v -1.406372 q 0,-1.135915 -0.52739,-1.744441 -0.51387,-0.608526 -1.44694,-0.608526 -0.93308,0 -1.46046,0.608526 -0.51387,0.608526 -0.51387,1.744441 v 1.406372 q 0,1.135915 0.51387,1.744441 0.52738,0.608526 1.46046,0.608526 z"
       style="font-style:normal;font-variant:normal;font-weight:bold;font-stretch:normal;font-size:13.5228px;line-height:1.25;font-family:'IBM Plex Sans';-inkscape-font-specification:'IBM Plex Sans Bold';fill:#000000;fill-opacity:1;stroke:none;stroke-width:0.33807"
       id="path908" />
    <path
       d="m 125.67161,69.255745 -0.90603,-1.893192 h -0.0406 v 6.355716 h -1.93376 v -9.438914 h 2.24478 l 2.58286,4.462524 0.90602,1.893192 h 0.0406 v -6.355716 h 1.93376 v 9.438914 h -2.24478 z"
       style="font-style:normal;font-variant:normal;font-weight:bold;font-stretch:normal;font-size:13.5228px;line-height:1.25;font-family:'IBM Plex Sans';-inkscape-font-specification:'IBM Plex Sans Bold';fill:#000000;fill-opacity:1;stroke:none;stroke-width:0.33807"
       id="path910" />
    <rect
       style="fill:#73ff00;fill-opacity:0.520161;stroke-width:2;stroke-linecap:round;stroke-linejoin:round"
       id="rect877"
       width="10.48177"
       height="1.4026935"
       x="67.258186"
       y="73.867645" />
    <path
       id="rect905-2"
       style="fill:#000000;fill-opacity:1;stroke:none;stroke-width:7.17524;stroke-linecap:round;stroke-linejoin:round;stroke-miterlimit:4;stroke-dasharray:none;stroke-opacity:1"
       d="M 356.55859 283.92188 L 356.55859 297.13086 L 423.27344 297.13086 L 480.01562 297.13086 L 493.22461 283.92188 L 423.27344 283.92188 L 356.55859 283.92188 z "
       transform="scale(0.26458333)" />
    <path
       d="m 137.80625,49.031851 -0.67614,-2.244785 h -3.15081 l -0.67614,2.244785 h -2.08251 l 3.11024,-9.438914 h 2.54229 l 3.06968,9.438914 z m -2.23126,-7.572768 h -0.0676 l -1.04125,3.583542 h 2.16364 z"
       style="font-style:normal;font-variant:normal;font-weight:bold;font-stretch:normal;font-size:13.5228px;line-height:1.25;font-family:'IBM Plex Sans';-inkscape-font-specification:'IBM Plex Sans Bold';fill:#000000;fill-opacity:1;stroke:none;stroke-width:0.338069"
       id="path904-6"
       inkscape:export-xdpi="1052.8739"
       inkscape:export-ydpi="1052.8739" />
    <path
       d="m 149.16539,49.031851 h -2.38002 l -2.04194,-3.475359 h -0.0406 l -1.98785,3.475359 h -2.21774 l 3.02911,-4.881731 -2.88036,-4.557183 h 2.39354 l 1.8391,3.191381 h 0.0406 l 1.86614,-3.191381 h 2.21774 l -2.9074,4.597752 z"
       style="font-style:normal;font-variant:normal;font-weight:bold;font-stretch:normal;font-size:13.5228px;line-height:1.25;font-family:'IBM Plex Sans';-inkscape-font-specification:'IBM Plex Sans Bold';fill:#000000;fill-opacity:1;stroke:none;stroke-width:0.338069"
       id="path906-7"
       inkscape:export-xdpi="1052.8739"
       inkscape:export-ydpi="1052.8739" />
    <path
       d="m 153.80368,49.194125 q -0.93308,0 -1.70388,-0.311024 -0.77079,-0.311025 -1.31171,-0.919551 -0.54091,-0.622049 -0.83841,-1.528076 -0.2975,-0.919551 -0.2975,-2.12308 0,-1.203529 0.2975,-2.109557 0.2975,-0.91955 0.83841,-1.528076 0.54092,-0.622049 1.31171,-0.933074 0.7708,-0.311024 1.70388,-0.311024 0.93307,0 1.70387,0.311024 0.7708,0.311025 1.31171,0.933074 0.54091,0.608526 0.83842,1.528076 0.2975,0.906028 0.2975,2.109557 0,1.203529 -0.2975,2.12308 -0.29751,0.906027 -0.83842,1.528076 -0.54091,0.608526 -1.31171,0.919551 -0.7708,0.311024 -1.70387,0.311024 z m 0,-1.825578 q 0.93307,0 1.44694,-0.608526 0.52739,-0.608526 0.52739,-1.744441 v -1.406372 q 0,-1.135915 -0.52739,-1.744441 -0.51387,-0.608526 -1.44694,-0.608526 -0.93308,0 -1.46046,0.608526 -0.51387,0.608526 -0.51387,1.744441 v 1.406372 q 0,1.135915 0.51387,1.744441 0.52738,0.608526 1.46046,0.608526 z"
       style="font-style:normal;font-variant:normal;font-weight:bold;font-stretch:normal;font-size:13.5228px;line-height:1.25;font-family:'IBM Plex Sans';-inkscape-font-specification:'IBM Plex Sans Bold';fill:#000000;fill-opacity:1;stroke:none;stroke-width:0.338069"
       id="path908-0"
       inkscape:export-xdpi="1052.8739"
       inkscape:export-ydpi="1052.8739" />
    <path
       d="m 162.55291,44.569327 -0.90603,-1.893192 h -0.0406 v 6.355716 h -1.93376 v -9.438914 h 2.24478 l 2.58286,4.462524 0.90602,1.893192 h 0.0406 v -6.355716 h 1.93376 v 9.438914 h -2.24478 z"
       style="font-style:normal;font-variant:normal;font-weight:bold;font-stretch:normal;font-size:13.5228px;line-height:1.25;font-family:'IBM Plex Sans';-inkscape-font-specification:'IBM Plex Sans Bold';fill:#000000;fill-opacity:1;stroke:none;stroke-width:0.338069"
       id="path910-5"
       inkscape:export-xdpi="1052.8739"
       inkscape:export-ydpi="1052.8739" />
    <path
       id="rect905-2-3"
       style="fill:#000000;fill-opacity:1;stroke:none;stroke-width:1.89845;stroke-linecap:round;stroke-linejoin:round;stroke-miterlimit:4;stroke-dasharray:none;stroke-opacity:1"
       d="m 131.22076,50.434579 v 3.494876 h 17.65164 15.01303 l 3.49488,-3.494876 H 148.8724 Z"
       inkscape:export-xdpi="1052.8739"
       inkscape:export-ydpi="1052.8739" />
    <path
       d="m 159.96257,21.969735 0.67614,2.244785 h 3.15081 l 0.67614,-2.244785 h 2.08251 l -3.11024,9.438914 h -2.54229 l -3.06968,-9.438914 z m 2.23126,7.572768 h 0.0676 l 1.04125,-3.583542 h -2.16364 z"
       style="font-style:normal;font-variant:normal;font-weight:bold;font-stretch:normal;font-size:13.5228px;line-height:1.25;font-family:'IBM Plex Sans';-inkscape-font-specification:'IBM Plex Sans Bold';fill:#000000;fill-opacity:1;stroke:none;stroke-width:0.338069"
       id="path904-6-4"
       inkscape:export-xdpi="1052.8739"
       inkscape:export-ydpi="1052.8739" />
    <path
       d="m 148.60343,21.969735 h 2.38002 l 2.04194,3.475359 h 0.0406 l 1.98785,-3.475359 h 2.21774 l -3.02911,4.881731 2.88036,4.557183 h -2.39354 l -1.8391,-3.191381 h -0.0406 l -1.86614,3.191381 h -2.21774 l 2.9074,-4.597752 z"
       style="font-style:normal;font-variant:normal;font-weight:bold;font-stretch:normal;font-size:13.5228px;line-height:1.25;font-family:'IBM Plex Sans';-inkscape-font-specification:'IBM Plex Sans Bold';fill:#000000;fill-opacity:1;stroke:none;stroke-width:0.338069"
       id="path906-7-5"
       inkscape:export-xdpi="1052.8739"
       inkscape:export-ydpi="1052.8739" />
    <path
       d="m 143.96514,21.807461 q 0.93308,0 1.70388,0.311024 0.77079,0.311025 1.31171,0.919551 0.54091,0.622049 0.83841,1.528076 0.2975,0.919551 0.2975,2.12308 0,1.203529 -0.2975,2.109557 -0.2975,0.91955 -0.83841,1.528076 -0.54092,0.622049 -1.31171,0.933074 -0.7708,0.311024 -1.70388,0.311024 -0.93307,0 -1.70387,-0.311024 -0.7708,-0.311025 -1.31171,-0.933074 -0.54091,-0.608526 -0.83842,-1.528076 -0.2975,-0.906028 -0.2975,-2.109557 0,-1.203529 0.2975,-2.12308 0.29751,-0.906027 0.83842,-1.528076 0.54091,-0.608526 1.31171,-0.919551 0.7708,-0.311024 1.70387,-0.311024 z m 0,1.825578 q -0.93307,0 -1.44694,0.608526 -0.52739,0.608526 -0.52739,1.744441 v 1.406372 q 0,1.135915 0.52739,1.744441 0.51387,0.608526 1.44694,0.608526 0.93308,0 1.46046,-0.608526 0.51387,-0.608526 0.51387,-1.744441 v -1.406372 q 0,-1.135915 -0.51387,-1.744441 -0.52738,-0.608526 -1.46046,-0.608526 z"
       style="font-style:normal;font-variant:normal;font-weight:bold;font-stretch:normal;font-size:13.5228px;line-height:1.25;font-family:'IBM Plex Sans';-inkscape-font-specification:'IBM Plex Sans Bold';fill:#000000;fill-opacity:1;stroke:none;stroke-width:0.338069"
       id="path908-0-2"
       inkscape:export-xdpi="1052.8739"
       inkscape:export-ydpi="1052.8739" />
    <path
       d="m 135.21591,26.432259 0.90603,1.893192 h 0.0406 v -6.355716 h 1.93376 v 9.438914 h -2.24478 l -2.58286,-4.462524 -0.90602,-1.893192 h -0.0406 v 6.355716 h -1.93376 v -9.438914 h 2.24478 z"
       style="font-style:normal;font-variant:normal;font-weight:bold;font-stretch:normal;font-size:13.5228px;line-height:1.25;font-family:'IBM Plex Sans';-inkscape-font-specification:'IBM Plex Sans Bold';fill:#000000;fill-opacity:1;stroke:none;stroke-width:0.338069"
       id="path910-5-2"
       inkscape:export-xdpi="1052.8739"
       inkscape:export-ydpi="1052.8739" />
    <path
       id="rect905-2-3-5"
       style="fill:#000000;fill-opacity:1;stroke:none;stroke-width:1.89845;stroke-linecap:round;stroke-linejoin:round;stroke-miterlimit:4;stroke-dasharray:none;stroke-opacity:1"
       d="m 166.54806,20.567007 v -3.494876 h -17.65164 -15.01303 l -3.49488,3.494876 h 18.50791 z"
       inkscape:export-xdpi="1052.8739"
       inkscape:export-ydpi="1052.8739" />
  </g>
</svg>
